<svg width="89" height="50" viewBox="0 0 89 50" fill="none" xmlns="http://www.w3.org/2000/svg">
<path d="M54.7619 4.99359H53.6098V6.97822H54.7802C55.4386 6.97822 56.2432 6.79531 56.2432 5.9539C56.2432 5.23138 55.658 5.00274 54.7711 5.00274M54.6248 1.66453H53.6007V3.4571H54.7254C55.5026 3.4571 55.9506 3.12785 55.9506 2.51509C55.9506 1.90232 55.5026 1.67368 54.6248 1.67368M55.0271 8.67019H51.5891V0H55.0271C56.3621 0 57.9622 0.47558 57.9622 2.23157C57.9622 3.18273 57.3862 3.82293 56.545 4.10645V4.13389C57.5325 4.30766 58.3097 5.01188 58.3097 6.1551C58.3097 8.03913 56.6638 8.67934 55.018 8.67934" fill="white"/>
<path d="M62.6804 6.00877H62.4244C61.5466 6.00877 60.5591 6.11852 60.5591 6.84104C60.5591 7.30747 61.0254 7.46295 61.4277 7.46295C62.2324 7.46295 62.6804 6.96908 62.6804 6.20998V5.99963V6.00877ZM59.0138 3.40223C59.7179 2.72544 60.7328 2.3779 61.7203 2.3779C63.7503 2.3779 64.5092 3.38394 64.5092 5.59721V8.67019H62.6804V8.02084H62.6439C62.3421 8.52386 61.6472 8.81653 60.9248 8.81653C59.9647 8.81653 58.7212 8.34095 58.7212 6.90506C58.7212 5.13993 60.8517 4.84726 62.6164 4.84726V4.74666C62.6164 4.14304 62.141 3.86866 61.5192 3.86866C60.9431 3.86866 60.3854 4.15218 60.0196 4.49058L59.0138 3.40223Z" fill="white"/>
<path d="M69.4834 8.67019V5.34113C69.4834 4.66435 69.3005 4.06072 68.5782 4.06072C67.8558 4.06072 67.5083 4.67349 67.5083 5.36857V8.67019H65.4967V2.56996H67.4352V3.41138H67.4626C67.7461 2.87177 68.441 2.39619 69.2822 2.39619C70.9098 2.39619 71.495 3.66746 71.495 4.89299V8.66105H69.4834V8.67019Z" fill="white"/>
<path d="M76.6978 4.54545C76.4783 4.25279 76.0394 4.06073 75.6371 4.06073C74.7959 4.06073 74.2381 4.78324 74.2381 5.62465C74.2381 6.46606 74.7867 7.17943 75.6645 7.17943C76.0669 7.17943 76.5058 7.02395 76.7435 6.72214L77.8499 8.08486C77.347 8.57874 76.4966 8.8714 75.6097 8.8714C73.6986 8.8714 72.2082 7.64587 72.2082 5.62465C72.2082 3.60344 73.7078 2.3779 75.5914 2.3779C76.46 2.3779 77.3653 2.70715 77.8407 3.20102L76.6886 4.54545H76.6978Z" fill="white"/>
<path d="M81.2148 4.04243C80.2729 4.04243 79.7883 4.81068 79.7883 5.59721C79.7883 6.38375 80.2912 7.17943 81.2239 7.17943C82.1566 7.17943 82.6595 6.38375 82.6595 5.59721C82.6595 4.81068 82.1474 4.04243 81.2148 4.04243ZM81.2148 8.86225C79.386 8.86225 77.8499 7.59099 77.8499 5.59721C77.8499 3.60344 79.386 2.3779 81.2148 2.3779C83.0435 2.3779 84.5888 3.60344 84.5888 5.59721C84.5888 7.59099 83.0526 8.86225 81.2148 8.86225Z" fill="white"/>
<path d="M16.6782 42.1894C11.5394 42.2077 7.65332 38.0921 7.63503 32.623C7.61674 27.1538 11.4846 23.0199 16.6233 23.0016C21.7347 22.9833 25.5934 27.0989 25.6116 32.5681C25.6299 38.0373 21.7896 42.1712 16.6782 42.1894ZM17.236 15.1911C14.1454 15.2003 11.3931 16.06 9.05231 17.7428L7.58931 18.7946L7.54359 2.39619L0 4.66435V49.2591H7.68075V46.4605L9.14375 47.5031C11.4937 49.1677 14.246 50.0091 17.3365 49.9999C26.0963 49.9725 33.1918 42.1437 33.1644 32.5498C33.137 22.9559 25.9865 15.1728 17.236 15.2003" fill="white"/>
<path d="M49.0928 29.0012L48.2424 28.6811C44.6672 27.355 43.0762 26.4496 43.0762 24.593C43.0762 22.5718 45.0604 21.8584 46.9257 21.8584C48.791 21.8584 51.1318 22.4803 51.1318 25.4344V27.0166H58.712V25.4344C58.712 18.9958 53.8658 14.496 46.9257 14.496C39.4461 14.496 35.5417 19.572 35.5417 24.593C35.5417 31.745 41.4212 33.8576 46.1485 35.5588L46.6331 35.7325C50.2815 37.0952 52.0279 38.0281 52.0279 39.6835C52.0279 41.8328 49.6414 42.601 47.5932 42.601C45.1884 42.601 42.3081 41.9059 42.3081 38.5769V36.8849H34.7188V38.5769C34.7188 45.4088 39.8942 49.9999 47.5841 49.9999C54.5425 49.9999 59.599 45.6648 59.599 39.6835C59.599 32.8973 53.7652 30.7298 49.0836 28.9921" fill="white"/>
<path d="M88.0269 45.61C88.0269 46.177 87.5697 46.6343 87.0119 46.6343C86.4542 46.6343 85.9878 46.177 85.9878 45.61C85.9878 45.0429 86.445 44.5856 87.0119 44.5856C87.5788 44.5856 88.0269 45.0429 88.0269 45.61ZM76.6063 44.8875H84.79V41.9334H73.1043L78.1791 36.9672C82.2937 32.9614 84.2139 29.3579 84.2139 25.6447C84.2139 20.1024 80.3096 14.496 72.8483 14.496C67.2706 14.496 61.2631 17.9989 61.2631 25.6905V27.0166H68.761V25.6905C68.761 23.1205 70.1508 21.8218 72.894 21.8218C74.7227 21.8218 76.6795 22.8278 76.6795 25.6447C76.6795 27.9038 74.4484 30.3731 72.7568 32.0376L65.3321 39.4732C62.7261 42.0797 61.2723 45.5917 61.2723 49.25H84.8083V46.3325H76.6246C76.2223 46.3325 75.8931 46.0032 75.8931 45.6008C75.8931 45.1984 76.2223 44.8692 76.6246 44.8692" fill="white"/>
</svg>
